<?xml version="1.0" standalone="no"?>
<!DOCTYPE svg PUBLIC "-//W3C//DTD SVG 20010904//EN"
 "http://www.w3.org/TR/2001/REC-SVG-20010904/DTD/svg10.dtd">
<svg version="1.0" xmlns="http://www.w3.org/2000/svg"
 width="128.000000pt" height="120.000000pt" viewBox="0 0 128.000000 120.000000"
 preserveAspectRatio="xMidYMid meet">

<g transform="translate(0.000000,120.000000) scale(0.100000,-0.100000)"
fill="#000000" stroke="none">
<path d="M525 1133 c-197 -45 -361 -200 -409 -388 -20 -75 -20 -204 -1 -278
45 -173 192 -330 351 -376 l31 -9 7 109 c5 88 3 115 -9 139 -8 16 -15 54 -15
84 0 35 -7 70 -19 93 -35 70 -35 78 3 98 28 15 33 22 23 33 -8 10 -25 13 -55
9 -43 -5 -44 -4 -40 23 4 27 3 28 -27 23 -21 -3 -49 2 -78 15 -37 16 -51 30
-69 66 -12 25 -19 48 -15 52 3 4 26 10 49 15 47 8 113 -3 160 -27 30 -15 31
-15 64 17 32 31 34 36 34 104 0 73 10 95 41 95 37 0 49 -28 49 -109 0 -82 9
-101 47 -101 32 0 43 28 43 109 0 74 13 101 50 101 28 0 40 -31 40 -104 0 -58
3 -67 30 -95 l30 -30 47 21 c31 14 66 20 109 20 77 -1 88 -6 79 -40 -16 -66
-87 -117 -151 -110 -31 4 -34 2 -34 -22 0 -24 -3 -26 -35 -22 -20 2 -42 -1
-51 -9 -13 -11 -11 -15 15 -32 17 -10 31 -23 31 -28 0 -5 -11 -36 -25 -69 -17
-41 -23 -68 -19 -90 4 -19 0 -48 -11 -75 -14 -38 -16 -63 -10 -151 l7 -106 27
7 c50 12 159 85 209 139 113 124 160 270 140 436 -26 219 -183 400 -395 455
-53 14 -202 19 -248 8z"/>
<path d="M540 262 c0 -6 14 -22 31 -36 48 -40 128 -32 158 16 12 19 11 20 -6
13 -69 -28 -129 -25 -170 8 -9 6 -13 6 -13 -1z"/>
</g>
</svg>
